<svg width="50" height="50" viewBox="0 0 50 50" fill="none" xmlns="http://www.w3.org/2000/svg">
<path d="M46.6309 37.5C45.9798 38.6068 45.0358 39.3311 43.7988 39.6729C42.5618 40.0146 41.3818 39.86 40.2588 39.209C39.1357 38.5579 38.4033 37.6058 38.0615 36.3525C37.7197 35.0993 37.8743 33.9193 38.5254 32.8125C40.5111 29.362 41.6178 25.6755 41.8457 21.7529C42.0736 17.8304 41.4307 14.0951 39.917 10.5469C38.4033 6.9987 36.1654 3.95508 33.2031 1.41602C34.7331 1.93685 36.1654 2.58789 37.5 3.36914C40.4297 5.06185 42.9036 7.25098 44.9219 9.93652C46.9401 12.6221 48.3561 15.4867 49.1699 18.5303C49.9837 21.5739 50.1872 24.764 49.7803 28.1006C49.3734 31.4372 48.3236 34.5703 46.6309 37.5ZM37.5 46.6309C34.5703 48.3236 31.4372 49.3734 28.1006 49.7803C24.764 50.1872 21.5739 49.9837 18.5303 49.1699C15.4867 48.3561 12.6221 46.9401 9.93652 44.9219C7.25098 42.9036 5.06185 40.4297 3.36914 37.5C2.7181 36.3932 2.55534 35.2132 2.88086 33.96C3.20638 32.7067 3.93066 31.7546 5.05371 31.1035C6.17676 30.4525 7.36491 30.2979 8.61816 30.6396C9.87142 30.9814 10.8236 31.7057 11.4746 32.8125C12.972 35.4167 14.86 37.6628 17.1387 39.5508C19.4173 41.4388 21.875 42.8467 24.5117 43.7744C27.1484 44.7021 29.9235 45.2067 32.8369 45.2881C35.7503 45.3695 38.5742 44.9056 41.3086 43.8965C40.1042 44.9707 38.8346 45.8822 37.5 46.6309ZM25 9.375C20.9961 9.375 17.2445 10.262 13.7451 12.0361C10.2458 13.8102 7.34049 16.2354 5.0293 19.3115C2.7181 22.3877 1.18815 25.8464 0.439453 29.6875C0.146484 28.0924 0 26.5299 0 25C0 21.6146 0.65918 18.3757 1.97754 15.2832C3.2959 12.1908 5.06999 9.52962 7.2998 7.2998C9.52962 5.06999 12.1908 3.2959 15.2832 1.97754C18.3757 0.65918 21.6146 0 25 0C26.3021 0 27.4089 0.455729 28.3203 1.36719C29.2318 2.27865 29.6875 3.38542 29.6875 4.6875C29.6875 5.98958 29.2318 7.09635 28.3203 8.00781C27.4089 8.91927 26.3021 9.375 25 9.375Z" fill="#FF6767"/>
</svg>
